<?xml version="1.0" encoding="utf-8"?>
<!-- Generator: Adobe Illustrator 26.0.1, SVG Export Plug-In . SVG Version: 6.00 Build 0)  -->
<svg version="1.1" id="Layer_1" xmlns="http://www.w3.org/2000/svg" xmlns:xlink="http://www.w3.org/1999/xlink" x="0px" y="0px"
	 viewBox="0 0 63.26 64.39" style="enable-background:new 0 0 63.26 64.39;" xml:space="preserve">
<style type="text/css">
	.st0{fill:#0096C7;}
	.st1{fill:#FFFFFF;}
</style>
<circle class="st0" cx="32.11" cy="32.71" r="29.35"/>
<g>
	<path class="st1" d="M45.99,36.15h-9.65c-0.28,0-0.51,0.23-0.51,0.51v9.93c0,0.28-0.23,0.51-0.51,0.51h-6.43
		c-0.28,0-0.51-0.23-0.51-0.51v-9.93c0-0.28-0.23-0.51-0.51-0.51h-9.65c-0.28,0-0.51-0.23-0.51-0.51v-5.87
		c0-0.28,0.23-0.51,0.51-0.51h9.65c0.28,0,0.51-0.23,0.51-0.51v-9.93c0-0.28,0.23-0.51,0.51-0.51h6.43c0.28,0,0.51,0.23,0.51,0.51
		v9.93c0,0.28,0.23,0.51,0.51,0.51h9.65c0.28,0,0.51,0.23,0.51,0.51v5.87C46.49,35.92,46.27,36.15,45.99,36.15z"/>
</g>
</svg>
